<svg xmlns="http://www.w3.org/2000/svg" viewBox="0 0 598 394" width="598" height="394" role="img" aria-label="Pixel Productions">
<title>Pixel Productions — monograma</title>
<defs>
  <filter id="glow" x="-40%" y="-40%" width="180%" height="180%">
    <feGaussianBlur stdDeviation="9" result="b"/>
    <feMerge><feMergeNode in="b"/><feMergeNode in="SourceGraphic"/></feMerge>
  </filter>
</defs>
<g filter="url(#glow)"><rect x="44.0" y="44.0" width="30.0" height="30.0" fill="#22D3EE"/><rect x="78.0" y="44.0" width="30.0" height="30.0" fill="#FF7A1A"/><rect x="112.0" y="44.0" width="30.0" height="30.0" fill="#22C55E"/><rect x="146.0" y="44.0" width="30.0" height="30.0" fill="#A3E635"/><rect x="180.0" y="44.0" width="30.0" height="30.0" fill="#FFD60A"/><rect x="214.0" y="44.0" width="30.0" height="30.0" fill="#FF3B30"/><rect x="44.0" y="78.0" width="30.0" height="30.0" fill="#A855F7"/><rect x="78.0" y="78.0" width="30.0" height="30.0" fill="#22D3EE"/><rect x="112.0" y="78.0" width="30.0" height="30.0" fill="#FF7A1A"/><rect x="146.0" y="78.0" width="30.0" height="30.0" fill="#22C55E"/><rect x="180.0" y="78.0" width="30.0" height="30.0" fill="#A3E635"/><rect x="214.0" y="78.0" width="30.0" height="30.0" fill="#FFD60A"/><rect x="248.0" y="78.0" width="30.0" height="30.0" fill="#FF3B30"/><rect x="44.0" y="112.0" width="30.0" height="30.0" fill="#FF2D95"/><rect x="78.0" y="112.0" width="30.0" height="30.0" fill="#A855F7"/><rect x="214.0" y="112.0" width="30.0" height="30.0" fill="#A3E635"/><rect x="248.0" y="112.0" width="30.0" height="30.0" fill="#FFD60A"/><rect x="44.0" y="146.0" width="30.0" height="30.0" fill="#FF3B30"/><rect x="78.0" y="146.0" width="30.0" height="30.0" fill="#FF2D95"/><rect x="214.0" y="146.0" width="30.0" height="30.0" fill="#22C55E"/><rect x="248.0" y="146.0" width="30.0" height="30.0" fill="#A3E635"/><rect x="44.0" y="180.0" width="30.0" height="30.0" fill="#FFD60A"/><rect x="78.0" y="180.0" width="30.0" height="30.0" fill="#FF3B30"/><rect x="112.0" y="180.0" width="30.0" height="30.0" fill="#FF2D95"/><rect x="146.0" y="180.0" width="30.0" height="30.0" fill="#A855F7"/><rect x="180.0" y="180.0" width="30.0" height="30.0" fill="#22D3EE"/><rect x="214.0" y="180.0" width="30.0" height="30.0" fill="#FF7A1A"/><rect x="248.0" y="180.0" width="30.0" height="30.0" fill="#22C55E"/><rect x="44.0" y="214.0" width="30.0" height="30.0" fill="#A3E635"/><rect x="78.0" y="214.0" width="30.0" height="30.0" fill="#FFD60A"/><rect x="112.0" y="214.0" width="30.0" height="30.0" fill="#FF3B30"/><rect x="146.0" y="214.0" width="30.0" height="30.0" fill="#FF2D95"/><rect x="180.0" y="214.0" width="30.0" height="30.0" fill="#A855F7"/><rect x="214.0" y="214.0" width="30.0" height="30.0" fill="#22D3EE"/><rect x="44.0" y="248.0" width="30.0" height="30.0" fill="#22C55E"/><rect x="78.0" y="248.0" width="30.0" height="30.0" fill="#A3E635"/><rect x="44.0" y="282.0" width="30.0" height="30.0" fill="#FF7A1A"/><rect x="78.0" y="282.0" width="30.0" height="30.0" fill="#22C55E"/><rect x="44.0" y="316.0" width="30.0" height="30.0" fill="#22D3EE"/><rect x="78.0" y="316.0" width="30.0" height="30.0" fill="#FF7A1A"/><rect x="316.0" y="44.0" width="30.0" height="30.0" fill="#FF2D95"/><rect x="350.0" y="44.0" width="30.0" height="30.0" fill="#A855F7"/><rect x="384.0" y="44.0" width="30.0" height="30.0" fill="#22D3EE"/><rect x="418.0" y="44.0" width="30.0" height="30.0" fill="#FF7A1A"/><rect x="452.0" y="44.0" width="30.0" height="30.0" fill="#22C55E"/><rect x="486.0" y="44.0" width="30.0" height="30.0" fill="#A3E635"/><rect x="316.0" y="78.0" width="30.0" height="30.0" fill="#FF3B30"/><rect x="350.0" y="78.0" width="30.0" height="30.0" fill="#FF2D95"/><rect x="384.0" y="78.0" width="30.0" height="30.0" fill="#A855F7"/><rect x="418.0" y="78.0" width="30.0" height="30.0" fill="#22D3EE"/><rect x="452.0" y="78.0" width="30.0" height="30.0" fill="#FF7A1A"/><rect x="486.0" y="78.0" width="30.0" height="30.0" fill="#22C55E"/><rect x="520.0" y="78.0" width="30.0" height="30.0" fill="#A3E635"/><rect x="316.0" y="112.0" width="30.0" height="30.0" fill="#FFD60A"/><rect x="350.0" y="112.0" width="30.0" height="30.0" fill="#FF3B30"/><rect x="486.0" y="112.0" width="30.0" height="30.0" fill="#FF7A1A"/><rect x="520.0" y="112.0" width="30.0" height="30.0" fill="#22C55E"/><rect x="316.0" y="146.0" width="30.0" height="30.0" fill="#A3E635"/><rect x="350.0" y="146.0" width="30.0" height="30.0" fill="#FFD60A"/><rect x="486.0" y="146.0" width="30.0" height="30.0" fill="#22D3EE"/><rect x="520.0" y="146.0" width="30.0" height="30.0" fill="#FF7A1A"/><rect x="316.0" y="180.0" width="30.0" height="30.0" fill="#22C55E"/><rect x="350.0" y="180.0" width="30.0" height="30.0" fill="#A3E635"/><rect x="384.0" y="180.0" width="30.0" height="30.0" fill="#FFD60A"/><rect x="418.0" y="180.0" width="30.0" height="30.0" fill="#FF3B30"/><rect x="452.0" y="180.0" width="30.0" height="30.0" fill="#FF2D95"/><rect x="486.0" y="180.0" width="30.0" height="30.0" fill="#A855F7"/><rect x="520.0" y="180.0" width="30.0" height="30.0" fill="#22D3EE"/><rect x="316.0" y="214.0" width="30.0" height="30.0" fill="#FF7A1A"/><rect x="350.0" y="214.0" width="30.0" height="30.0" fill="#22C55E"/><rect x="384.0" y="214.0" width="30.0" height="30.0" fill="#A3E635"/><rect x="418.0" y="214.0" width="30.0" height="30.0" fill="#FFD60A"/><rect x="452.0" y="214.0" width="30.0" height="30.0" fill="#FF3B30"/><rect x="486.0" y="214.0" width="30.0" height="30.0" fill="#FF2D95"/><rect x="316.0" y="248.0" width="30.0" height="30.0" fill="#22D3EE"/><rect x="350.0" y="248.0" width="30.0" height="30.0" fill="#FF7A1A"/><rect x="316.0" y="282.0" width="30.0" height="30.0" fill="#A855F7"/><rect x="350.0" y="282.0" width="30.0" height="30.0" fill="#22D3EE"/><rect x="316.0" y="316.0" width="30.0" height="30.0" fill="#FF2D95"/><rect x="350.0" y="316.0" width="30.0" height="30.0" fill="#A855F7"/></g>
</svg>